<svg class="animated" id="freepik_stories-mail-sent" xmlns="http://www.w3.org/2000/svg" viewBox="0 0 500 500" version="1.1" xmlns:xlink="http://www.w3.org/1999/xlink" xmlns:svgjs="http://svgjs.com/svgjs"><style>svg#freepik_stories-mail-sent:not(.animated) .animable {opacity: 0;}svg#freepik_stories-mail-sent.animated #freepik--Mail--inject-2 {animation: 1.5s Infinite  linear wind;animation-delay: 0s;}svg#freepik_stories-mail-sent.animated #freepik--Character--inject-2 {animation: 1s 1 forwards cubic-bezier(.36,-0.01,.5,1.38) slideRight;animation-delay: 0s;}            @keyframes wind {                0% {                    transform: rotate( 0deg );                }                25% {                    transform: rotate( 1deg );                }                75% {                    transform: rotate( -1deg );                }            }                    @keyframes slideRight {                0% {                    opacity: 0;                    transform: translateX(30px);                }                100% {                    opacity: 1;                    transform: translateX(0);                }            }        </style><g id="freepik--background-complete--inject-2" class="animable" style="transform-origin: 250px 224.18px;"><rect y="382.4" width="500" height="0.25" style="fill: rgb(224, 224, 224); transform-origin: 250px 382.525px;" id="eldmwp3uu68o8" class="animable"></rect><rect x="343.26" y="392.99" width="34.4" height="0.25" style="fill: rgb(224, 224, 224); transform-origin: 360.46px 393.115px;" id="elw01vwfao40p" class="animable"></rect><rect x="91.68" y="393.11" width="19.36" height="0.25" style="fill: rgb(224, 224, 224); transform-origin: 101.36px 393.235px;" id="eljra2b4vl3tc" class="animable"></rect><rect x="211.76" y="392.53" width="39.24" height="0.25" style="fill: rgb(224, 224, 224); transform-origin: 231.38px 392.655px;" id="elpuz77e92mwn" class="animable"></rect><rect x="193.22" y="388.97" width="17.54" height="0.25" style="fill: rgb(224, 224, 224); transform-origin: 201.99px 389.095px;" id="elw2p2mkxve4r" class="animable"></rect><rect x="371.57" y="389.1" width="52.99" height="0.25" style="fill: rgb(224, 224, 224); transform-origin: 398.065px 389.225px;" id="el5sp4k0512yw" class="animable"></rect><path d="M237,337.8H43.91a5.71,5.71,0,0,1-5.7-5.71V60.66A5.71,5.71,0,0,1,43.91,55H237a5.71,5.71,0,0,1,5.71,5.71V332.09A5.71,5.71,0,0,1,237,337.8ZM43.91,55.2a5.46,5.46,0,0,0-5.45,5.46V332.09a5.46,5.46,0,0,0,5.45,5.46H237a5.47,5.47,0,0,0,5.46-5.46V60.66A5.47,5.47,0,0,0,237,55.2Z" style="fill: rgb(224, 224, 224); transform-origin: 140.46px 196.4px;" id="el1ww3g8v9nab" class="animable"></path><path d="M453.31,337.8H260.21a5.72,5.72,0,0,1-5.71-5.71V60.66A5.72,5.72,0,0,1,260.21,55h193.1A5.71,5.71,0,0,1,459,60.66V332.09A5.71,5.71,0,0,1,453.31,337.8ZM260.21,55.2a5.47,5.47,0,0,0-5.46,5.46V332.09a5.47,5.47,0,0,0,5.46,5.46h193.1a5.47,5.47,0,0,0,5.46-5.46V60.66a5.47,5.47,0,0,0-5.46-5.46Z" style="fill: rgb(224, 224, 224); transform-origin: 356.75px 196.4px;" id="elwck6811ll7" class="animable"></path><path d="M439.31,257.23c-12.3-18.73-1.07-38.86-2.94-59.7s-21.67-25.38-17.92-43c4.34-20.48-7.23-40.13-20.34-40.13S373.44,134,377.78,154.5c3.75,17.65-16,22.2-17.92,43s9.36,41-2.95,59.7-9.07,43.53-2.14,55.84a47.73,47.73,0,0,0,6.62,9.05,50.19,50.19,0,0,0,73.45,0,48.13,48.13,0,0,0,6.61-9.05C448.39,300.76,451.62,276,439.31,257.23Z" style="fill: rgb(224, 224, 224); transform-origin: 398.112px 226.235px;" id="el1vrj181phxu" class="animable"></path><path d="M398.11,271.44h0a6.22,6.22,0,0,1,6.22,6.22V382.4a0,0,0,0,1,0,0H391.89a0,0,0,0,1,0,0V277.66A6.22,6.22,0,0,1,398.11,271.44Z" style="fill: rgb(240, 240, 240); transform-origin: 398.11px 326.92px;" id="elvrfsszvxtbq" class="animable"></path><path d="M319.91,382.4H303V277.67a8.49,8.49,0,0,1,8.47-8.47h0a8.49,8.49,0,0,1,8.47,8.47Z" style="fill: rgb(224, 224, 224); transform-origin: 311.47px 325.8px;" id="elv2ncebpw3gd" class="animable"></path><circle cx="311.44" cy="301.98" r="52.17" style="fill: rgb(240, 240, 240); transform-origin: 311.44px 301.98px;" id="elzjk9iwb0it" class="animable"></circle><g id="elivcm5ljuweq"><circle cx="352.79" cy="281.38" r="20.56" style="fill: rgb(240, 240, 240); transform-origin: 352.79px 281.38px; transform: rotate(-76.05deg);" class="animable" id="elquqfxod21d"></circle></g><g id="elq6m371iqyze"><circle cx="269.25" cy="269.2" r="12.17" style="fill: rgb(240, 240, 240); transform-origin: 269.25px 269.2px; transform: rotate(-80.75deg);" class="animable" id="elz29vzhfdzys"></circle></g><circle cx="282.48" cy="262.9" r="8.54" style="fill: rgb(240, 240, 240); transform-origin: 282.48px 262.9px;" id="elouyywxxn2ld" class="animable"></circle><path d="M204,319.89a56.55,56.55,0,0,0-22.72,8.67c-.06-7.92-1.51-15.43-5.23-21.5-5.66,5.51-10.25,12.65-14,20.33C160.68,313,156.89,299,148.5,290.13c-12.57,7.91-19.05,21.09-22.13,35.05A63.47,63.47,0,0,0,104.9,302c-7.69,8.1-10.15,19.3-9.94,30.78-8.74-10.18-18.44-18.12-27.9-19.05C64.73,329.82,69.69,345,76,357a47.92,47.92,0,0,0,42.47,25.41h41.09c17.51,0,33.93-9.34,42.14-24.81C206.89,347.8,209.37,335.19,204,319.89Z" style="fill: rgb(224, 224, 224); transform-origin: 136.74px 336.27px;" id="el8vqe7dtxc1g" class="animable"></path><path d="M192.26,112.14c5.07-14.87,1-25.46-11.37-25.46-7.78,0-17.43,4.17-26.83,10.95-1.06-3.87-4.05-6.18-8.86-6.18-8.47,0-20.14,7.16-29.29,17.26a14,14,0,0,0-9.54-3.85c-8.11-.46-17.92,3.66-26.45,10.35a4.61,4.61,0,0,0-3.76-1.93c-4.67-.26-11,3.9-14.13,9.28-.19.33-.36.66-.54,1H194.72C195.12,118.86,194.29,114.94,192.26,112.14Z" style="fill: rgb(240, 240, 240); transform-origin: 128.154px 105.12px;" id="ell88sc4lm20m" class="animable"></path><path d="M192.67,202.43c2.48-7.26.51-12.43-5.55-12.43-3.81,0-8.52,2-13.11,5.35a4.06,4.06,0,0,0-4.33-3c-4.13,0-9.83,3.5-14.31,8.44a6.79,6.79,0,0,0-4.66-1.88c-4-.23-8.75,1.78-12.92,5.05A2.25,2.25,0,0,0,136,203c-2.28-.13-5.37,1.9-6.9,4.53l-.27.48h65.08A8.17,8.17,0,0,0,192.67,202.43Z" style="fill: rgb(240, 240, 240); transform-origin: 161.409px 199.005px;" id="elk0ty3aidkso" class="animable"></path><path d="M342.77,147.49a11.31,11.31,0,0,0-1.55-.11c.48-7.25-2.29-11.89-8.22-11.89-4.27,0-9.52,2.42-14.86,6.51,1.53-14.08-3.37-23.23-14.47-23.23-8.94,0-20.27,6-31.46,15.66-1-5.52-4.28-8.84-9.82-8.84-9.73,0-23.56,10.24-34.65,24.68h0A14,14,0,0,0,217,144.74c-9.26-.65-20.77,5.23-31,14.81a4.73,4.73,0,0,0-4.21-2.75c-5.07-.36-12,4.93-16.11,12H350.92C355.27,158.08,351.81,148.7,342.77,147.49Z" style="fill: rgb(240, 240, 240); transform-origin: 259.234px 143.785px;" id="ely30sr8k9lu" class="animable"></path></g><g id="freepik--Shadow--inject-2" class="animable" style="transform-origin: 250px 416.24px;"><ellipse cx="250" cy="416.24" rx="193.89" ry="11.32" style="fill: rgb(245, 245, 245); transform-origin: 250px 416.24px;" id="elt3uw81zapw" class="animable"></ellipse></g><g id="freepik--Mail--inject-2" class="animable" style="transform-origin: 178.14px 174.597px;"><polygon points="48.86 150.56 276.83 183.38 307.42 214.25 48.86 150.56" style="fill: #37AEC3; transform-origin: 178.14px 182.405px;" id="el7xnjyapz1o" class="animable"></polygon><g id="eludbfk4zj2el"><polygon points="48.86 150.56 276.83 183.38 307.42 214.25 48.86 150.56" style="fill: rgb(255, 255, 255); opacity: 0.6; transform-origin: 178.14px 182.405px;" class="animable" id="el1kguef2enqpi"></polygon></g><polygon points="48.86 150.56 276.83 183.38 266.25 228.02 48.86 150.56" style="fill: #37AEC3; transform-origin: 162.845px 189.29px;" id="elh6g0wyv5q15" class="animable"></polygon><g id="elkhuikvr9jgi"><polygon points="48.86 150.56 276.83 183.38 266.25 228.02 48.86 150.56" style="opacity: 0.2; transform-origin: 162.845px 189.29px;" class="animable" id="elgcx9jv48km"></polygon></g><path d="M261.57,98.88l13.23,62a6.25,6.25,0,0,1-4.8,7.41l-118.08,25.2a6.26,6.26,0,0,1-7.41-4.8l-13.24-62a6.26,6.26,0,0,1,4.81-7.41l118.08-25.2a6.26,6.26,0,0,1,7.41,4.81Z" style="fill: #37AEC3; transform-origin: 203.036px 143.785px;" id="el2fc2uuexmn9" class="animable"></path><g id="el02xcksy4rjhu"><path d="M261.57,98.88l13.23,62a6.25,6.25,0,0,1-4.8,7.41l-118.08,25.2a6.26,6.26,0,0,1-7.41-4.8l-13.24-62a6.26,6.26,0,0,1,4.81-7.41l118.08-25.2a6.26,6.26,0,0,1,7.41,4.81Z" style="opacity: 0.4; transform-origin: 203.036px 143.785px;" class="animable" id="elwfaaz4gttt"></path></g><path d="M258.66,94.82l-39.45,48.43a25.43,25.43,0,0,1-31.15,6.65l-55.79-28.1a6.22,6.22,0,0,1,3.81-2.53l118.08-25.2A6.23,6.23,0,0,1,258.66,94.82Z" style="fill: #37AEC3; transform-origin: 195.465px 123.275px;" id="elvmn1kk1n8gs" class="animable"></path><polygon points="48.86 150.56 236.89 195.25 266.25 228.02 48.86 150.56" style="fill: #37AEC3; transform-origin: 157.555px 189.29px;" id="elwv35ylaoua" class="animable"></polygon><g id="elmo28zrb7a1"><polygon points="48.86 150.56 236.89 195.25 266.25 228.02 48.86 150.56" style="fill: rgb(255, 255, 255); opacity: 0.6; transform-origin: 157.555px 189.29px;" class="animable" id="elccqygex900m"></polygon></g><g id="els24pukamph"><rect x="127.15" y="188.08" width="1" height="24.25" style="fill: #37AEC3; transform-origin: 127.65px 200.205px; transform: rotate(-59.64deg);" class="animable" id="elf7lx10p0zyf"></rect></g><g id="elx0vc45kqy7b"><rect x="150.62" y="209.59" width="1" height="8.72" style="fill: #37AEC3; transform-origin: 151.12px 213.95px; transform: rotate(-59.64deg);" class="animable" id="elt27lgujxasj"></rect></g><polygon points="48.86 150.56 236.89 195.25 200.34 239.3 48.86 150.56" style="fill: #37AEC3; transform-origin: 142.875px 194.93px;" id="elyku3zcq2k1" class="animable"></polygon><path d="M300.36,255.26a2,2,0,0,1-.74-.14L269,243a2,2,0,0,1,1.47-3.72L301.1,251.4a2,2,0,0,1-.74,3.86Z" style="fill: #37AEC3; transform-origin: 285.056px 247.202px;" id="elkjs19kifc3m" class="animable"></path><g id="el4aiajkkwwuy"><path d="M300.36,255.26a2,2,0,0,1-.74-.14L269,243a2,2,0,0,1,1.47-3.72L301.1,251.4a2,2,0,0,1-.74,3.86Z" style="opacity: 0.3; transform-origin: 285.056px 247.202px;" class="animable" id="elo49p6iq3ex"></path></g><path d="M298.55,237.7a1.91,1.91,0,0,1-.73-.15L281.37,231a2,2,0,1,1,1.47-3.72l16.45,6.52a2,2,0,0,1,1.13,2.59A2,2,0,0,1,298.55,237.7Z" style="fill: #37AEC3; transform-origin: 290.325px 232.418px;" id="elddf29ntx4hs" class="animable"></path><g id="elsy1ba7ycn3"><path d="M298.55,237.7a1.91,1.91,0,0,1-.73-.15L281.37,231a2,2,0,1,1,1.47-3.72l16.45,6.52a2,2,0,0,1,1.13,2.59A2,2,0,0,1,298.55,237.7Z" style="fill: rgb(255, 255, 255); opacity: 0.5; transform-origin: 290.325px 232.418px;" class="animable" id="elnnt7h6js3ap"></path></g><path d="M264.16,255a2.1,2.1,0,0,1-.73-.14L233.56,243a2,2,0,1,1,1.47-3.72L264.9,251.1a2,2,0,0,1-.74,3.86Z" style="fill: #37AEC3; transform-origin: 249.224px 247.068px;" id="elz9hax0p39kr" class="animable"></path><g id="elw0jggtp50yg"><path d="M264.16,255a2.1,2.1,0,0,1-.73-.14L233.56,243a2,2,0,1,1,1.47-3.72L264.9,251.1a2,2,0,0,1-.74,3.86Z" style="opacity: 0.3; transform-origin: 249.224px 247.068px;" class="animable" id="elgx72djct7u9"></path></g></g><g id="freepik--Character--inject-2" class="animable animator-active" style="transform-origin: 327.046px 263.31px;"><path d="M372.3,164.82c2.65,5.17,5.08,10.35,7.39,15.65s4.46,10.67,6.34,16.3l.68,2.13c.12.38.29,1,.39,1.44s.19.94.24,1.36a35.31,35.31,0,0,1,.35,4.87,87.3,87.3,0,0,1-.42,9,144.16,144.16,0,0,1-2.72,17.22l-5.49-.61c-.07-5.63-.12-11.32-.32-16.87-.09-2.76-.25-5.53-.53-8.13a30.52,30.52,0,0,0-.6-3.63c-.05-.28-.13-.49-.19-.72s-.12-.31-.22-.61l-.76-1.89c-2.09-5.06-4.44-10.16-6.84-15.24l-7.26-15.24Z" style="fill: rgb(228, 137, 123); transform-origin: 375.016px 198.805px;" id="els4nv0215jt" class="animable"></path><path d="M379.14,230.42l-2.56,4.79,8.18,2.28s1.56-3.85-.3-6.89Z" style="fill: rgb(228, 137, 123); transform-origin: 380.976px 233.955px;" id="eljagrg3gd6rj" class="animable"></path><polygon points="373.45 242.11 380.97 242.71 384.76 237.49 376.58 235.21 373.45 242.11" style="fill: rgb(228, 137, 123); transform-origin: 379.105px 238.96px;" id="elafg47lp30xa" class="animable"></polygon><path d="M337.87,130.26c-.11.59-.52,1-.9.92s-.59-.61-.47-1.19.52-1,.9-.92S338,129.68,337.87,130.26Z" style="fill: rgb(38, 50, 56); transform-origin: 337.187px 130.125px;" id="el078p4xrmbsbt" class="animable"></path><path d="M337.41,131.26a21.34,21.34,0,0,1-3.79,4.41,3.44,3.44,0,0,0,2.67,1.08Z" style="fill: rgb(222, 87, 83); transform-origin: 335.515px 134.007px;" id="elvvnz3wwrgbh" class="animable"></path><path d="M340.65,127.47a.36.36,0,0,1-.25-.11,2.78,2.78,0,0,0-2.33-.94.35.35,0,0,1-.12-.68,3.4,3.4,0,0,1,3,1.15.35.35,0,0,1,0,.49A.36.36,0,0,1,340.65,127.47Z" style="fill: rgb(38, 50, 56); transform-origin: 339.383px 126.594px;" id="elmtos4wuodvf" class="animable"></path><path d="M354.41,138.43c-1.05,5.38-2.1,15.22,1.66,18.81,0,0-1.47,5.45-11.46,5.45-11,0-5.24-5.45-5.24-5.45,6-1.43,5.83-5.88,4.79-10.05Z" style="fill: rgb(228, 137, 123); transform-origin: 346.966px 150.56px;" id="eltl9u1yq7o8j" class="animable"></path><path d="M357.58,160.63c.79-2.63,1.66-5.64-.14-6.59-2-1-12.87-2.1-16.62-.15s-2.68,7.3-2.68,7.3Z" style="fill: rgb(38, 50, 56); transform-origin: 348.249px 157.001px;" id="elcmj315wb2u" class="animable"></path><path d="M380.64,410a2.35,2.35,0,0,1-1.76-.48.71.71,0,0,1,0-.83.83.83,0,0,1,.55-.41c1.08-.24,3.1,1.14,3.19,1.2a.2.2,0,0,1,.07.18.16.16,0,0,1-.13.13A9.34,9.34,0,0,1,380.64,410Zm-.92-1.4-.21,0a.47.47,0,0,0-.32.24c-.16.28-.06.4,0,.44.31.42,1.81.42,2.91.24A5.78,5.78,0,0,0,379.72,408.62Z" style="fill: #37AEC3; transform-origin: 380.719px 409.136px;" id="el3so2hhqnwpy" class="animable"></path><path d="M382.52,409.82l-.08,0c-.76-.42-2.23-2-2.08-2.84a.57.57,0,0,1,.56-.46,1,1,0,0,1,.74.22c.85.7,1,2.82,1,2.91a.16.16,0,0,1-.08.16A.14.14,0,0,1,382.52,409.82Zm-1.48-3H381c-.23,0-.25.14-.26.18-.09.49.85,1.7,1.6,2.27a4.19,4.19,0,0,0-.86-2.3A.64.64,0,0,0,381,406.84Z" style="fill: #37AEC3; transform-origin: 381.505px 408.167px;" id="el537ah0s51ox" class="animable"></path><path d="M336.53,410c-.94,0-1.85-.13-2.16-.55a.66.66,0,0,1,0-.76.88.88,0,0,1,.56-.41c1.21-.33,3.79,1.13,3.9,1.19a.18.18,0,0,1,.08.18.17.17,0,0,1-.14.14A12.17,12.17,0,0,1,336.53,410Zm-1.17-1.42a1.15,1.15,0,0,0-.33,0,.51.51,0,0,0-.34.24c-.13.22-.08.32,0,.38.33.46,2.19.49,3.57.3A7.87,7.87,0,0,0,335.36,408.6Z" style="fill: #37AEC3; transform-origin: 336.581px 409.116px;" id="elb61jd6e9oji" class="animable"></path><path d="M338.75,409.82l-.07,0c-.89-.39-2.64-2-2.51-2.81,0-.2.17-.44.65-.49a1.22,1.22,0,0,1,1,.3c.94.76,1.13,2.74,1.14,2.83a.17.17,0,0,1-.07.16A.17.17,0,0,1,338.75,409.82Zm-1.79-3h-.11c-.31,0-.33.16-.34.2-.08.5,1.12,1.75,2,2.29a4,4,0,0,0-1-2.26A.87.87,0,0,0,337,406.84Z" style="fill: #37AEC3; transform-origin: 337.562px 408.168px;" id="elpx3s3zu7rh" class="animable"></path><polygon points="346.83 409.64 339.48 409.64 338.75 392.63 346.1 392.63 346.83 409.64" style="fill: rgb(228, 137, 123); transform-origin: 342.79px 401.135px;" id="elwinv04nncc" class="animable"></polygon><polygon points="390.94 409.64 383.59 409.64 379.9 392.63 387.24 392.63 390.94 409.64" style="fill: rgb(228, 137, 123); transform-origin: 385.42px 401.135px;" id="elhnfu9nbizue" class="animable"></polygon><path d="M383.07,408.79h8.25a.65.65,0,0,1,.63.51l1.45,6.53a1.08,1.08,0,0,1-1.08,1.3c-2.88-.05-4.28-.22-7.91-.22-2.23,0-6.83.24-9.92.24s-3.48-3-2.22-3.33c5.66-1.24,7.79-2.95,9.6-4.57A1.78,1.78,0,0,1,383.07,408.79Z" style="fill: rgb(38, 50, 56); transform-origin: 382.51px 412.97px;" id="el4z8o2nm1cme" class="animable"></path><path d="M339.53,408.79h8a.65.65,0,0,1,.63.51l1.45,6.53a1.07,1.07,0,0,1-1.06,1.3c-2.89-.05-7.07-.22-10.71-.22-4.25,0-7.93.24-12.92.24-3,0-3.85-3-2.59-3.33,5.75-1.26,10.44-1.39,15.41-4.45A3.36,3.36,0,0,1,339.53,408.79Z" style="fill: rgb(38, 50, 56); transform-origin: 335.701px 412.97px;" id="elcyi0nn25i3" class="animable"></path><path d="M336,170.14a169.18,169.18,0,0,1-18.31-2.43c-3-.58-6.06-1.23-9.1-2.05a73.14,73.14,0,0,1-9.16-3c-.77-.32-1.55-.67-2.32-1a20.47,20.47,0,0,1-2.5-1.46c-1.44-.95-2.68-1.94-3.91-2.92-2.45-2-4.72-4-7-6.05-4.47-4.14-8.71-8.42-12.8-12.92l3.68-4.11,14.51,10.43c2.39,1.72,4.81,3.41,7.19,5,1.18.79,2.39,1.53,3.5,2.16a12.16,12.16,0,0,0,1.44.7c.59.23,1.19.46,1.82.68a108,108,0,0,0,16.53,3.7c5.71.9,11.61,1.64,17.31,2.24Z" style="fill: rgb(228, 137, 123); transform-origin: 303.89px 152.17px;" id="elryh8qs14vzl" class="animable"></path><path d="M369.22,158.9c6.89,1.58,13.85,21.71,13.85,21.71L368.9,190.78s-4-9.38-7.86-17.58C357,164.61,362.18,157.29,369.22,158.9Z" style="fill: #37AEC3; transform-origin: 371.346px 174.728px;" id="elhdx5wi2d9th" class="animable"></path><g id="el02m6dehf2i66"><path d="M369.22,158.9c6.89,1.58,13.85,21.71,13.85,21.71L368.9,190.78s-4-9.38-7.86-17.58C357,164.61,362.18,157.29,369.22,158.9Z" style="opacity: 0.4; transform-origin: 371.346px 174.728px;" class="animable" id="el7dw88tshkzv"></path></g><path d="M365.25,169.9l-2.81,6.29c2.91,6.28,5.57,12.5,6.28,14.16C368.62,182.92,367.21,173.7,365.25,169.9Z" style="fill: #37AEC3; transform-origin: 365.58px 180.125px;" id="eloc038tlo5zd" class="animable"></path><g id="elq5d317ocxuj"><path d="M365.25,169.9l-2.81,6.29c2.91,6.28,5.57,12.5,6.28,14.16C368.62,182.92,367.21,173.7,365.25,169.9Z" style="opacity: 0.6; transform-origin: 365.58px 180.125px;" class="animable" id="elpx7doljc30k"></path></g><path d="M328.07,159.28s-7.82,8.83-.44,63.5h39.29c.28-6-3.51-35.46,2.3-63.88a102.56,102.56,0,0,0-13.15-1.66,145.27,145.27,0,0,0-16.7,0A73.5,73.5,0,0,0,328.07,159.28Z" style="fill: #37AEC3; transform-origin: 346.84px 189.89px;" id="el82vrtrosaep" class="animable"></path><g id="elqzkb7nggkcp"><path d="M328.07,159.28s-7.82,8.83-.44,63.5h39.29c.28-6-3.51-35.46,2.3-63.88a102.56,102.56,0,0,0-13.15-1.66,145.27,145.27,0,0,0-16.7,0A73.5,73.5,0,0,0,328.07,159.28Z" style="opacity: 0.4; transform-origin: 346.84px 189.89px;" class="animable" id="el8j80m3rl7mw"></path></g><path d="M325.16,169.9c-.26,2.07-.46,4.52-.59,7.41a41.08,41.08,0,0,0,10.94-5.14Z" style="fill: #37AEC3; transform-origin: 330.04px 173.605px;" id="el677v0n65so4" class="animable"></path><g id="eluk3kwkuy34"><path d="M325.16,169.9c-.26,2.07-.46,4.52-.59,7.41a41.08,41.08,0,0,0,10.94-5.14Z" style="opacity: 0.6; transform-origin: 330.04px 173.605px;" class="animable" id="eltb2u3ro7n2"></path></g><path d="M342,171c-5.26,4.66-25.34,4.19-25.34,4.19L316,155.75a148.17,148.17,0,0,0,20.47,1.48C347.66,157,347.74,165.86,342,171Z" style="fill: #37AEC3; transform-origin: 330.881px 165.477px;" id="elmctfb3szwi" class="animable"></path><g id="el9eciz697rga"><path d="M342,171c-5.26,4.66-25.34,4.19-25.34,4.19L316,155.75a148.17,148.17,0,0,0,20.47,1.48C347.66,157,347.74,165.86,342,171Z" style="opacity: 0.4; transform-origin: 330.881px 165.477px;" class="animable" id="elpclpui2c65h"></path></g><path d="M274.77,134.24l-5-5.89-5.39,6s3.32,5.58,8.59,4.7Z" style="fill: rgb(228, 137, 123); transform-origin: 269.575px 133.747px;" id="el1lk63t3zjtu" class="animable"></path><polygon points="262.61 121.48 260.67 129.17 264.34 134.31 269.73 128.35 262.61 121.48" style="fill: rgb(228, 137, 123); transform-origin: 265.2px 127.895px;" id="elsu7d2rbobe" class="animable"></polygon><polygon points="338.75 392.64 339.13 401.4 346.48 401.4 346.1 392.64 338.75 392.64" style="fill: rgb(206, 111, 100); transform-origin: 342.615px 397.02px;" id="elvss9e5mq4mn" class="animable"></polygon><polygon points="387.25 392.64 379.9 392.64 381.8 401.4 389.15 401.4 387.25 392.64" style="fill: rgb(206, 111, 100); transform-origin: 384.525px 397.02px;" id="ell12gko4r3si" class="animable"></polygon><path d="M343.17,123c-6.59-3-8.67-16.33,10.29-13,0,0-2.86,3.16,2.94,5.16S357.35,129.51,343.17,123Z" style="fill: rgb(38, 50, 56); transform-origin: 348.637px 117.174px;" id="el5r60wab42mu" class="animable"></path><path d="M357.49,133c-1.89,7-2.63,11.26-7,14.19-6.54,4.4-14.67-.65-14.93-8.12-.23-6.71,2.9-17.1,10.45-18.52A9.94,9.94,0,0,1,357.49,133Z" style="fill: rgb(228, 137, 123); transform-origin: 346.705px 134.597px;" id="elyc0ikoittt" class="animable"></path><path d="M353.2,113.5c4.49,2.5,10.57,4,10,7.56-.75,4.35,3.67,1.63,2.64,8.1-.67,4.23-8.47,17.05-14,16.43-8.26-1-7.21-13.56-7.24-20.18C344.58,121.5,344.4,108.57,353.2,113.5Z" style="fill: rgb(38, 50, 56); transform-origin: 355.284px 129.003px;" id="elset6w0rhyrp" class="animable"></path><path d="M343.61,119.11c-2,.47-4.65,12,3.1,13.06C355.62,133.38,343.61,119.11,343.61,119.11Z" style="fill: rgb(38, 50, 56); transform-origin: 345.751px 125.676px;" id="el01ydb0hge999" class="animable"></path><path d="M343.81,123.2c-2.45.22-8-2.73-7.32-7.17C336.49,116,340,121.22,343.81,123.2Z" style="fill: rgb(38, 50, 56); transform-origin: 340.121px 119.621px;" id="elqmjottn2y9g" class="animable"></path><path d="M347.45,133.09a8.21,8.21,0,0,1-3.63,3.85c-2.11,1.1-3.3-.5-2.82-2.62.43-1.9,2.05-4.77,4.22-5S348.32,131.09,347.45,133.09Z" style="fill: rgb(228, 137, 123); transform-origin: 344.334px 133.3px;" id="el79pe94ovdaf" class="animable"></path><path d="M358.45,125a9.85,9.85,0,0,0,5.78-7.33S367.53,126.84,358.45,125Z" style="fill: rgb(38, 50, 56); transform-origin: 361.632px 121.457px;" id="elbsxkib42el" class="animable"></path><path d="M366.79,124.85a5.07,5.07,0,0,0-4.78-.47S365.09,120.39,366.79,124.85Z" style="fill: rgb(38, 50, 56); transform-origin: 364.4px 123.794px;" id="elof8sz727nca" class="animable"></path><path d="M341.57,222.78s8.34,56.14,12.91,77.17c5,23,23.9,99.76,23.9,99.76h13.45S379.38,324.84,376.52,302c-3.1-24.75-9.6-79.26-9.6-79.26Z" style="fill: #37AEC3; transform-origin: 366.7px 311.225px;" id="elujn77n7aoz" class="animable"></path><g id="el6ierijaycz"><path d="M341.57,222.78s8.34,56.14,12.91,77.17c5,23,23.9,99.76,23.9,99.76h13.45S379.38,324.84,376.52,302c-3.1-24.75-9.6-79.26-9.6-79.26Z" style="fill: rgb(255, 255, 255); opacity: 0.5; transform-origin: 366.7px 311.225px;" class="animable" id="elbk78m5bx31"></path></g><path d="M376.23,394.75c-.06,0,1.39,5.17,1.39,5.17h15.14l-.28-4.61Z" style="fill: #37AEC3; transform-origin: 384.494px 397.335px;" id="elscqyb15vve" class="animable"></path><g id="el2ebokqc3wkm"><path d="M376.23,394.75c-.06,0,1.39,5.17,1.39,5.17h15.14l-.28-4.61Z" style="opacity: 0.1; transform-origin: 384.494px 397.335px;" class="animable" id="el3fbtgyha80p"></path></g><path d="M346.84,242.78c9.64,1.89,8.62,37.84,7.46,56.33-2.78-13.07-6.85-38.22-9.63-56.07A3.29,3.29,0,0,1,346.84,242.78Z" style="fill: #37AEC3; transform-origin: 349.848px 270.906px;" id="elff7ybne1ort" class="animable"></path><g id="el168b7z08vixj"><path d="M346.84,242.78c9.64,1.89,8.62,37.84,7.46,56.33-2.78-13.07-6.85-38.22-9.63-56.07A3.29,3.29,0,0,1,346.84,242.78Z" style="fill: rgb(255, 255, 255); opacity: 0.4; transform-origin: 349.848px 270.906px;" class="animable" id="elevdst9ipaab"></path></g><path d="M327.63,222.78s-1,54.92-.21,77.33c.83,23.3,9,99.6,9,99.6h12.44s.46-74.94,1-97.82c.61-24.95,3.62-79.11,3.62-79.11Z" style="fill: #37AEC3; transform-origin: 340.298px 311.245px;" id="elg35oe12kddn" class="animable"></path><g id="eluxtemlarfx"><path d="M327.63,222.78s-1,54.92-.21,77.33c.83,23.3,9,99.6,9,99.6h12.44s.46-74.94,1-97.82c.61-24.95,3.62-79.11,3.62-79.11Z" style="fill: rgb(255, 255, 255); opacity: 0.5; transform-origin: 340.298px 311.245px;" class="animable" id="el6lbd5yrw5ab"></path></g><path d="M339,390.77a.12.12,0,0,1-.12-.11c-2.2-21.12-7.37-72.22-8-90.55-.67-18.71-.06-60.69.14-73.11a.12.12,0,0,1,.12-.12h0a.13.13,0,0,1,.13.12c-.2,12.42-.81,54.4-.14,73.1.65,18.33,5.82,69.41,8,90.53a.14.14,0,0,1-.12.14Z" style="fill: #37AEC3; transform-origin: 334.852px 308.825px;" id="elp759mha30bm" class="animable"></path><g id="elu7loq316xur"><path d="M339,390.77a.12.12,0,0,1-.12-.11c-2.2-21.12-7.37-72.22-8-90.55-.67-18.71-.06-60.69.14-73.11a.12.12,0,0,1,.12-.12h0a.13.13,0,0,1,.13.12c-.2,12.42-.81,54.4-.14,73.1.65,18.33,5.82,69.41,8,90.53a.14.14,0,0,1-.12.14Z" style="fill: rgb(255, 255, 255); opacity: 0.4; transform-origin: 334.852px 308.825px;" class="animable" id="eluylqda6v68"></path></g><path d="M334,394.75c-.05,0,.71,5.17.71,5.17h15.13l.41-4.61Z" style="fill: #37AEC3; transform-origin: 342.124px 397.335px;" id="elr65rbzjrbl" class="animable"></path><g id="elshhpri1vm2l"><path d="M334,394.75c-.05,0,.71,5.17.71,5.17h15.13l.41-4.61Z" style="opacity: 0.1; transform-origin: 342.124px 397.335px;" class="animable" id="elomayeqqp3qo"></path></g></g><defs>     <filter id="active" height="200%">         <feMorphology in="SourceAlpha" result="DILATED" operator="dilate" radius="2"></feMorphology>                <feFlood flood-color="#32DFEC" flood-opacity="1" result="PINK"></feFlood>        <feComposite in="PINK" in2="DILATED" operator="in" result="OUTLINE"></feComposite>        <feMerge>            <feMergeNode in="OUTLINE"></feMergeNode>            <feMergeNode in="SourceGraphic"></feMergeNode>        </feMerge>    </filter>    <filter id="hover" height="200%">        <feMorphology in="SourceAlpha" result="DILATED" operator="dilate" radius="2"></feMorphology>                <feFlood flood-color="#ff0000" flood-opacity="0.5" result="PINK"></feFlood>        <feComposite in="PINK" in2="DILATED" operator="in" result="OUTLINE"></feComposite>        <feMerge>            <feMergeNode in="OUTLINE"></feMergeNode>            <feMergeNode in="SourceGraphic"></feMergeNode>        </feMerge>            <feColorMatrix type="matrix" values="0   0   0   0   0                0   1   0   0   0                0   0   0   0   0                0   0   0   1   0 "></feColorMatrix>    </filter></defs></svg>